<?xml version="1.0" encoding="UTF-8"?><svg id="_레이어_1" xmlns="http://www.w3.org/2000/svg" viewBox="0 0 71 61"><defs><style>.cls-1{opacity:.7;}.cls-2{fill:#fff;}</style></defs><g class="cls-1"><path class="cls-2" d="M55.72,12.6c-4.29,.15-7.84,3.58-8.13,7.86-.06,.89,.02,1.75,.22,2.56,.7,2.91,.03,5.99-1.72,8.42l-6.42,8.91c-.32,.44-.82,.7-1.36,.7h-.37c-.32,0-.62-.18-.77-.47l-2.6-4.91c-.44-.84-.4-1.86,.15-2.64,.83-1.18,1.28-2.64,1.19-4.21-.2-3.31-2.89-6.02-6.21-6.22-3.86-.24-7.06,2.82-7.06,6.63,0,.6,.08,1.19,.23,1.74,.42,1.55,.12,3.21-.91,4.45l-4.3,5.17c-.97,1.16-2.42,1.81-3.93,1.75-.25,0-.51,0-.78,.03-2.3,.27-4.15,2.16-4.35,4.47-.28,3.11,2.3,5.69,5.41,5.4,2.27-.21,4.13-1.99,4.45-4.24,.05-.39,.06-.77,.03-1.13-.11-1.23,.32-2.45,1.11-3.41l4.89-5.87c1.01-1.21,2.55-1.9,4.12-1.75,.22,.02,.44,.03,.67,.03h.02c.99,0,1.9,.55,2.36,1.42l2.58,4.89c.15,.28,.12,.61-.06,.88-.53,.77-.83,1.72-.79,2.74,.09,2.34,2,4.28,4.34,4.39,2.62,.12,4.78-1.96,4.78-4.56,0-.54-.09-1.05-.26-1.53-.24-.68-.11-1.43,.31-2.01l5.96-8.27c1.87-2.59,4.82-4.16,8-4.34,.03,0,.07,0,.1,0,4.28-.29,7.71-3.84,7.85-8.14,.16-4.89-3.84-8.89-8.73-8.72Zm.56,12c-2.03,0-3.68-1.65-3.68-3.68s1.65-3.68,3.68-3.68,3.68,1.65,3.68,3.68-1.65,3.68-3.68,3.68Z"/></g></svg>