<?xml version="1.0" encoding="UTF-8"?><svg id="_레이어_1" xmlns="http://www.w3.org/2000/svg" viewBox="0 0 30 20"><defs><style>.cls-1{fill:#fff;}</style></defs><path class="cls-1" d="M23.83,20c-.3-.08-.52-.27-.73-.49-1.65-1.66-3.31-3.31-4.96-4.96-.04-.04-.07-.09-.11-.15-2.15,1.57-4.48,2.09-7.04,1.41-1.91-.5-3.43-1.59-4.54-3.21-2.24-3.28-1.78-7.67,1.14-10.39,2.93-2.73,7.36-2.91,10.44-.45,1.72,1.37,2.73,3.16,3,5.34,.27,2.18-.31,4.14-1.64,5.93,.06,.05,.13,.09,.19,.14,1.62,1.62,3.24,3.24,4.87,4.86,.23,.23,.44,.45,.55,.76v.39c-.12,.42-.4,.7-.82,.82h-.35ZM7.03,8.05c-.01,3.32,2.69,6.03,6.03,6.05,3.32,.02,6.04-2.69,6.05-6.02,.01-3.32-2.69-6.04-6.02-6.05-3.32-.01-6.05,2.7-6.06,6.02Z"/></svg>