<?xml version="1.0" encoding="UTF-8"?><svg id="_레이어_1" xmlns="http://www.w3.org/2000/svg" viewBox="0 0 16 28"><defs><style>.cls-1{fill:#488df7;}</style></defs><path class="cls-1" d="M10.75,14.03c0,3.78,0,7.56,0,11.33,0,.57-.09,.66-.66,.66-2.61,0-5.21,0-7.82,0-.53,0-.63-.1-.63-.63,0-7.57,0-15.15,0-22.72,0-.53,.1-.63,.63-.63,2.62,0,5.25,0,7.87,0,.49,0,.61,.11,.61,.61,0,3.8,0,7.59,0,11.39ZM2.5,25.16h7.37v-.78c-.11,0-.19,0-.28,0-.28,0-.57,0-.85,0-.32,0-.5-.16-.49-.43,0-.26,.18-.41,.48-.42,.17,0,.34,0,.52,0,.21,0,.42,0,.63,0v-.8c-.11,0-.21,0-.3,0-.83,0-1.67,0-2.5,0-.34,0-.54-.23-.46-.53,.06-.25,.25-.32,.49-.32,.83,0,1.67,0,2.5,0,.09,0,.18,0,.28-.01v-.79c-.11,0-.2,0-.3,0-.31,0-.62,0-.93,0-.31-.02-.5-.32-.37-.59,.08-.19,.24-.26,.44-.26,.38,0,.77,0,1.16,0v-.8c-.11,0-.2,0-.29,0-.83,0-1.67,0-2.5,0-.31,0-.48-.16-.49-.41,0-.27,.17-.43,.49-.44,.83,0,1.67,0,2.5,0,.09,0,.18,0,.28,0v-.8c-.42,0-.81,0-1.21,0-.26,0-.42-.19-.42-.43,0-.23,.16-.39,.41-.41,.11,0,.22,0,.34,0,.3,0,.59,0,.88,0v-.8c-.11,0-.21,0-.3,0-.83,0-1.67,0-2.5,0-.34,0-.55-.26-.46-.55,.08-.23,.26-.3,.49-.3,.83,0,1.67,0,2.5,0,.09,0,.18,0,.27-.01v-.79c-.4,0-.79,0-1.18,0-.31,0-.49-.22-.45-.5,.03-.22,.2-.35,.47-.35,.38,0,.77,0,1.16,0v-.8c-.11,0-.2,0-.29,0-.83,0-1.65,0-2.48,0-.33,0-.51-.15-.51-.41,0-.28,.18-.43,.52-.44,.83,0,1.65,0,2.48,0,.09,0,.18,0,.28,0v-.8c-.42,0-.81,0-1.21,0-.26,0-.42-.19-.41-.43,0-.23,.16-.39,.41-.41,.12,0,.24,0,.36,0,.29,0,.58,0,.86,0v-.8c-.12,0-.21,0-.3,0-.83,0-1.67,0-2.5,0-.35,0-.57-.28-.45-.58,.09-.21,.26-.27,.48-.27,.83,0,1.67,0,2.5,0,.09,0,.18,0,.27-.01v-.79c-.4,0-.79,0-1.18,0-.31,0-.49-.22-.45-.5,.03-.22,.2-.35,.47-.35,.38,0,.77,0,1.16,0v-.8c-.11,0-.2,0-.29,0-.83,0-1.67,0-2.5,0-.24,0-.42-.09-.48-.34-.06-.29,.13-.51,.46-.51,.84,0,1.69,0,2.53,0,.09,0,.18,0,.28,0v-.8c-.42,0-.82,0-1.21,0-.26,0-.42-.19-.41-.43,0-.23,.16-.39,.41-.41,.12,0,.24,0,.36,0,.29,0,.58,0,.86,0v-.78H2.5V25.16Z"/><path class="cls-1" d="M14.08,24.57c.31-.32,.57-.59,.84-.86,.22-.22,.47-.24,.66-.07,.19,.18,.17,.45-.06,.68-.5,.51-1.01,1.01-1.52,1.52-.27,.27-.48,.26-.75,0-.5-.5-1-1-1.5-1.5-.24-.24-.26-.49-.08-.68,.19-.19,.44-.17,.68,.06,.27,.27,.52,.54,.84,.86V3.49c-.33,.34-.61,.63-.89,.91-.15,.15-.33,.18-.52,.09-.18-.09-.25-.26-.21-.46,.02-.09,.08-.19,.15-.26,.52-.53,1.04-1.05,1.57-1.57,.23-.22,.45-.23,.68,0,.53,.53,1.06,1.06,1.59,1.59,.2,.21,.2,.47,.02,.64-.17,.17-.43,.16-.62-.03-.28-.28-.55-.57-.88-.9V24.57Z"/></svg>