<?xml version="1.0" encoding="UTF-8"?><svg id="_레이어_1" xmlns="http://www.w3.org/2000/svg" viewBox="0 0 31 35"><defs><style>.cls-1{fill:#f6f7fb;}.cls-1,.cls-2,.cls-3{stroke:#488df7;stroke-miterlimit:10;}.cls-4,.cls-3{fill:none;}.cls-2{fill:#488df7;stroke-width:.25px;}</style></defs><g><path class="cls-4" d="M19.67,27.19c0-.81-.65-1.45-1.46-1.45-.81,0-1.46,.65-1.45,1.46,0,.81,.65,1.46,1.46,1.45,.81,0,1.45-.65,1.45-1.47Z"/><path class="cls-4" d="M17.25,29.25c-.07-.02-.16,0-.22,.04-.3,.17-.42,.58-.27,.91,.16,.34,.55,.51,.89,.37,.07-.03,.15-.08,.17-.14,.09-.31,.17-.63,.25-.95-.12-.02-.26-.04-.39-.08-.14-.04-.28-.11-.43-.14Z"/><path class="cls-4" d="M9.58,16.75c-.34,0-.67,0-1.02,0,0,.09-.01,.15-.01,.21,0,1.45-.02,2.91,0,4.36,.02,.73,.05,1.47,.21,2.18,1.09,4.67,3.99,7.57,8.66,8.7,.3,.07,.61,.1,.94,.15-.19-.36-.35-.67-.51-.98-.88,.11-1.46-.12-1.78-.75-.38-.74-.19-1.4,.4-1.96-.47-.59-.64-1.26-.47-1.99,.17-.74,.64-1.24,1.32-1.58-1.5-1.01-2.15-2.4-2.09-4.15,.03-.95,0-1.91,0-2.86v-1.32h-.33c-1.07,0-2.14,0-3.21,0-.12,0-.23,0-.35,0-.21-.03-.34-.16-.35-.37h-.93c-.01,.24-.19,.37-.5,.37Z"/><path class="cls-4" d="M14.94,15.95h.28v-5.66c-.11,0-.21,0-.3,0-.42,0-.84,0-1.26,0-.23,0-.36-.14-.38-.37-.02-.22,.12-.39,.36-.42,.08-.01,.16,0,.24,0,.7,0,1.39,0,2.09,0,.32,0,.42-.1,.42-.41,0-.54,0-1.07,0-1.61,0-.29-.11-.4-.41-.4-2.72,0-5.44,0-8.16,0-.31,0-.42,.1-.42,.42,0,.53,0,1.05,0,1.58,0,.32,.09,.42,.41,.42,.78,0,1.57,0,2.35,0,.58,0,1.16,0,1.74,0,.22,0,.41,.09,.43,.31,.01,.14-.08,.31-.18,.43-.06,.07-.21,.06-.33,.06-.99,0-1.98,0-2.97,0h-.3v5.57c1.62,.02,3.33,.05,5.02,.09,.45,0,.9,0,1.36,0Z"/><path class="cls-4" d="M20.35,28.95c-.96,0-1.74,.78-1.74,1.74,0,.94,.77,1.72,1.72,1.73,.95,.01,1.74-.77,1.74-1.73,0-.96-.77-1.74-1.72-1.74Z"/><path class="cls-2" d="M22.55,32.42h-.34c.71-.89,.88-1.82,.43-2.8-.45-.98-1.28-1.43-2.28-1.48,.03-.43,.13-.84,.08-1.24-.05-.4-.25-.78-.39-1.17h.28c2.17,0,4.33,0,6.5,0,.33,0,.53-.15,.53-.4,0-.25-.19-.4-.52-.4-.07,0-.14,0-.21,0-2.28,0-4.57,0-6.85,0-.27,0-.56-.02-.82-.07-1.73-.35-2.89-1.77-2.9-3.57,0-1.63,0-3.27,0-4.9h-5.04c.01,.21,.14,.34,.35,.37,.11,.02,.23,0,.35,0,1.07,0,2.14,0,3.21,0h.33v1.32c0,.95,.02,1.91,0,2.86-.05,1.75,.6,3.14,2.09,4.15-.68,.34-1.16,.84-1.32,1.58-.17,.73,0,1.4,.47,1.99-.6,.56-.78,1.21-.4,1.96,.32,.63,.9,.85,1.78,.75,.16,.31,.32,.62,.51,.98-.33-.05-.64-.07-.94-.15-4.67-1.13-7.57-4.03-8.66-8.7-.17-.7-.2-1.45-.21-2.18-.03-1.45,0-2.91,0-4.36,0-.06,0-.12,.01-.21,.35,0,.68,0,1.02,0,.31,0,.48-.14,.5-.37h-2.33c0,1.59,0,3.18,0,4.76,0,1.22,.15,2.42,.49,3.59,1.47,5.04,6.13,8.49,11.5,8.5,2.75,0,5.49,0,8.24,0v-.8c-1.81,0-3.62,0-5.43,0Zm-4.73-2.01c-.02,.06-.1,.12-.17,.14-.34,.14-.73-.03-.89-.37-.15-.33-.04-.74,.27-.91,.06-.04,.15-.05,.22-.04,.15,.03,.28,.1,.43,.14,.13,.04,.27,.05,.39,.08-.08,.32-.16,.64-.25,.95Zm.39-1.76c-.81,0-1.46-.64-1.46-1.45,0-.81,.64-1.46,1.45-1.46,.82,0,1.46,.64,1.46,1.45,0,.81-.64,1.46-1.45,1.47Zm2.11,3.77c-.94-.01-1.71-.79-1.72-1.73,0-.96,.78-1.74,1.74-1.74,.96,0,1.73,.78,1.72,1.74,0,.96-.79,1.74-1.74,1.73Z"/></g><line class="cls-1" x1="1.32" y1="14.74" x2="21.7" y2="14.74"/><polyline class="cls-3" points="5.68 11.51 9.68 8.5 5.68 5.49 9.68 2.48"/><polyline class="cls-3" points="13.42 11.51 17.42 8.5 13.42 5.49 17.42 2.48"/></svg>