<?xml version="1.0" encoding="UTF-8"?><svg id="_레이어_1" xmlns="http://www.w3.org/2000/svg" viewBox="0 0 22 25"><defs><style>.cls-1{fill:#488df7;stroke:#488df7;stroke-miterlimit:10;stroke-width:.5px;}</style></defs><path class="cls-1" d="M11.68,24.94c-4.42-.03-8.03-3.14-8.65-7.52-.27-1.89,.05-3.7,1-5.37,2.11-3.7,4.25-7.38,6.38-11.06,.6-1.03,1.91-1.04,2.51-.01,2.14,3.69,4.3,7.37,6.39,11.09,2.9,5.18-.28,11.74-6.13,12.71-.5,.08-1,.11-1.5,.16ZM3.83,16.31c0,.67,.14,1.5,.4,2.31,1.21,3.78,5.01,6.05,8.88,5.31,5.29-1.01,8.02-6.88,5.36-11.56-2.07-3.64-4.18-7.25-6.27-10.88-.31-.54-.76-.53-1.07,0-2.11,3.65-4.21,7.3-6.32,10.94-.66,1.14-.99,2.36-.99,3.86Z"/></svg>