<?xml version="1.0" encoding="UTF-8"?><svg id="_레이어_1" xmlns="http://www.w3.org/2000/svg" viewBox="0 0 21 29"><defs><style>.cls-1{fill:#488df7;}</style></defs><path class="cls-1" d="M14.66,.04c.32,.08,.66,.13,.97,.24,1.46,.5,2.61,1.37,3.05,2.96,.38,1.37,.2,2.67-.7,3.8-.71,.89-1.99,1.2-3.18,.81-1.06-.35-1.76-1.27-1.84-2.45-.08-1.08,.59-2.02,1.59-2.21,.3-.06,.55,.08,.61,.35,.06,.25-.08,.48-.34,.57-.84,.29-1.12,.85-.83,1.71,.2,.61,.61,1.02,1.23,1.16,1.52,.33,2.47-.41,2.68-2.07,.24-1.94-.87-3.29-2.75-3.77-1.63-.42-3.13,.03-4.27,1.27-1.2,1.31-1.37,2.93-.78,4.59,.23,.65,.61,1.27,1.01,1.84,.88,1.27,1.85,2.49,2.59,3.86,.39,.73,.7,1.48,.81,2.31,.14,1.01-.11,1.93-.61,2.8-.56,.95-1.14,1.88-1.67,2.85-.47,.84-.78,1.75-.88,2.73-.15,1.41,.2,2.7,.88,3.91,.2,.37,.45,.72,.67,1.08,.15,.25,.1,.53-.11,.68-.21,.15-.48,.11-.64-.12-.86-1.21-1.5-2.52-1.7-4.02-.2-1.56,.12-3.02,.81-4.39,.49-.95,1.06-1.86,1.6-2.79,.32-.55,.64-1.1,.71-1.77,.08-.74-.08-1.43-.37-2.1-.53-1.24-1.32-2.32-2.09-3.41-.5-.71-1.05-1.4-1.48-2.16-.8-1.41-1.01-2.94-.56-4.52C9.65,1.69,11.1,.61,13.09,.15c.17-.04,.34-.08,.51-.11,.35,0,.7,0,1.06,0Z"/><path class="cls-1" d="M9.85,16.12c.01,1.14-.45,2.11-1,3.06-.64,1.11-1.29,2.21-1.89,3.34-.37,.69-.6,1.44-.66,2.24-.08,1.08,.29,2,.98,2.81,.12,.14,.25,.26,.36,.39,.2,.23,.21,.49,.02,.68-.19,.19-.46,.2-.67,0-.62-.6-1.12-1.28-1.41-2.12-.38-1.11-.32-2.23,.1-3.31,.35-.9,.79-1.77,1.25-2.62,.4-.77,.87-1.5,1.31-2.24,.88-1.47,.85-2.99,.25-4.54-.27-.71-.67-1.32-1.23-1.84-1.83-1.71-4.68-.8-5.62,1.27-.56,1.24-.59,2.49,0,3.72,.58,1.2,1.69,1.53,2.81,1.28,.95-.22,1.55-1.22,1.45-2.33-.07-.79-.44-1.19-1.22-1.3-.05,0-.11-.01-.17-.02-.29-.04-.46-.24-.44-.51,.02-.26,.21-.42,.5-.42,1.1-.01,2,.72,2.2,1.82,.16,.92,.01,1.8-.51,2.57-.76,1.11-1.85,1.37-3.07,1.15-1.54-.27-2.37-1.35-2.74-2.82-.57-2.23,.39-4.59,2.27-5.64,2.26-1.27,4.76-.57,6.14,1.72,.68,1.12,1,2.35,.98,3.67Z"/><path class="cls-1" d="M17.15,26.97c.06-1.6,.73-2.87,1.86-3.91,.58-.54,1.09-1.11,1.29-1.91,.23-.93,.11-1.81-.47-2.58-.6-.78-1.39-1.13-2.36-.9-.95,.23-1.48,.93-1.69,1.88-.06,.29-.07,.61-.02,.9,.13,.78,.8,1.25,1.57,1.12,.37-.06,.62-.28,.74-.65,.11-.35,.07-.43-.27-.55-.24-.08-.38-.32-.33-.55,.05-.26,.27-.41,.54-.37,.77,.1,1.2,.85,.97,1.69-.29,1.05-1.34,1.62-2.45,1.31-1.07-.3-1.69-1.08-1.74-2.25-.06-1.64,1.09-3.45,3.06-3.55,1.53-.08,3,1.07,3.38,2.73,.36,1.58-.11,2.9-1.22,4.03-.38,.39-.79,.76-1.1,1.19-.76,1.05-.99,2.22-.6,3.49,.1,.32-.02,.58-.29,.66-.25,.08-.51-.06-.58-.37-.11-.47-.18-.94-.27-1.41Z"/></svg>