<?xml version="1.0" encoding="UTF-8"?><svg id="_레이어_1" xmlns="http://www.w3.org/2000/svg" viewBox="0 0 20 29"><defs><style>.cls-1{fill:#488df7;}</style></defs><path class="cls-1" d="M8.95,27.72c-.59-.14-1.19-.22-1.75-.42-1.99-.72-3.39-2.08-4.08-4.08-.82-2.36-.43-4.56,1.12-6.51,.38-.48,.89-.86,1.36-1.27,.16-.14,.23-.26,.23-.47,0-3.73,0-7.45,0-11.18,0-1.59,.69-2.79,2.14-3.47,2.24-1.06,4.91,.49,5.12,2.96,.02,.22,.03,.43,.03,.65,0,3.68,0,7.36,0,11.04,0,.21,.06,.33,.24,.46,2.22,1.67,3.2,3.89,2.77,6.64-.43,2.79-2.52,4.9-5.28,5.49-.26,.06-.53,.1-.79,.14h-1.08ZM6.88,9.47c0,1.96,0,3.92,0,5.87,0,.36-.11,.61-.42,.78-.08,.04-.15,.1-.23,.15-1.9,1.4-2.75,3.27-2.39,5.6,.48,3.07,3.19,5.09,6.29,4.77,2.81-.29,5.08-2.78,5.06-5.6-.02-2.11-.91-3.77-2.69-4.92-.31-.2-.43-.43-.43-.8,.01-3.77,0-7.54,0-11.32,0-.25-.02-.5-.04-.76-.19-1.68-2.15-2.74-3.66-1.97-1.01,.51-1.49,1.35-1.49,2.47,0,1.9,0,3.81,0,5.71Z"/><path class="cls-1" d="M16.52,13.9c.55,0,1.1-.01,1.65,0,.28,0,.46,.21,.48,.46,.02,.28-.13,.47-.42,.54-.05,.01-.11,.02-.16,.02-1.03,0-2.06,0-3.09,0-.32,0-.52-.16-.56-.41-.05-.25,.04-.45,.27-.56,.11-.05,.24-.06,.37-.06,.49,0,.97,0,1.46,0,0,0,0,0,0,0Z"/><path class="cls-1" d="M16.54,3.56c.5,0,.99,0,1.49,0,.39,0,.61,.18,.62,.49,0,.32-.22,.53-.61,.54-1,0-2,0-3,0-.4,0-.63-.2-.63-.52,0-.32,.22-.51,.62-.52,.51,0,1.01,0,1.52,0Z"/><path class="cls-1" d="M16.53,9.75c-.51,0-1.01,0-1.52,0-.38,0-.6-.19-.61-.5,0-.32,.22-.53,.61-.53,1.01,0,2.02,0,3.03,0,.33,0,.54,.16,.59,.41,.04,.25-.05,.45-.28,.56-.1,.05-.23,.06-.34,.06-.5,0-.99,0-1.49,0Z"/><path class="cls-1" d="M16.51,7.17c-.29,0-.58,0-.86,0-.38-.01-.6-.2-.6-.52,0-.31,.22-.51,.6-.52,.58,0,1.15-.01,1.73,0,.37,0,.59,.23,.58,.53,0,.3-.22,.49-.59,.5-.29,0-.58,0-.86,0Z"/><path class="cls-1" d="M16.51,12.34c-.3,0-.59,0-.89,0-.35,0-.57-.21-.58-.51,0-.3,.22-.51,.57-.52,.59,0,1.19,0,1.78,0,.33,0,.55,.2,.56,.5,.01,.3-.21,.52-.56,.53-.3,.01-.59,0-.89,0Z"/><path class="cls-1" d="M9.99,17.23c2.27,.42,3.32,2.44,3.02,4.2-.29,1.67-1.83,2.95-3.59,2.92-1.77-.02-3.29-1.37-3.49-3.13-.21-1.79,.9-3.59,3.03-4,0-.1,0-.21,0-.31,0-2.42,0-4.84,0-7.25,0-.12,0-.24,.03-.35,.05-.27,.27-.43,.52-.42,.26,.01,.45,.2,.48,.47,.01,.11,.01,.22,.01,.32,0,2.41,0,4.82,0,7.23,0,.11,0,.21,0,.31Zm-3.05,3.55c0,1.38,1.13,2.52,2.53,2.54,1.38,.02,2.57-1.17,2.55-2.55-.02-1.39-1.16-2.53-2.54-2.53-1.38,0-2.53,1.15-2.53,2.53Z"/></svg>