<?xml version="1.0" encoding="UTF-8"?><svg id="_레이어_1" xmlns="http://www.w3.org/2000/svg" viewBox="0 0 86 20"><defs><style>.cls-1{opacity:.7;}.cls-2{fill:#fff;}</style></defs><g class="cls-1"><path class="cls-2" d="M38.95,8.93c1.12-.51,1.69-1.44,1.69-2.78,0-1.04-.41-1.89-1.22-2.55-.67-.54-1.37-.81-2.1-.81h-5.89V15.87h6.48c.8,0,1.54-.37,2.21-1.11,.72-.77,1.08-1.65,1.08-2.66,0-1.51-.75-2.57-2.24-3.18Zm-5.83-4.65h3.05c.72,0,1.33,.17,1.85,.5,.62,.41,.93,.97,.93,1.69,0,.6-.23,1.08-.68,1.45-.39,.32-.86,.48-1.38,.48h-3.77V4.28Zm5.85,9.44c-.39,.44-.88,.66-1.45,.66h-4.4v-4.49h3.75c1.79,0,2.69,.74,2.69,2.21,0,.63-.2,1.17-.59,1.61Z"/><path class="cls-2" d="M37.91,16.09h-6.7V2.57h6.1c.78,0,1.53,.29,2.24,.86,.86,.7,1.3,1.61,1.3,2.72,0,1.26-.47,2.19-1.41,2.77,1.31,.67,1.97,1.74,1.97,3.19,0,1.06-.38,2-1.14,2.81-.71,.78-1.5,1.18-2.37,1.18Zm-6.26-.44h6.26c.74,0,1.41-.34,2.04-1.04,.68-.72,1.02-1.57,1.02-2.51,0-1.42-.69-2.39-2.11-2.97l-.47-.19,.46-.21c1.05-.48,1.56-1.32,1.56-2.58,0-.98-.37-1.76-1.14-2.38-.63-.5-1.29-.76-1.96-.76h-5.67V15.65Zm5.86-1.05h-4.62v-4.93h3.97c2.41,0,2.91,1.32,2.91,2.43,0,.69-.22,1.28-.65,1.76-.44,.49-.98,.74-1.62,.74Zm-4.18-.44h4.18c.51,0,.94-.19,1.29-.59h0c.36-.4,.54-.88,.54-1.47,0-1.34-.81-1.99-2.47-1.99h-3.53v4.05Zm3.55-5.54h-3.99V4.06h3.27c.76,0,1.42,.18,1.97,.54,.69,.45,1.03,1.08,1.03,1.87,0,.66-.26,1.21-.76,1.62-.43,.35-.94,.53-1.52,.53Zm-3.55-.44h3.55c.48,0,.88-.14,1.24-.43,.4-.33,.6-.75,.6-1.28,0-.64-.27-1.14-.83-1.5-.48-.31-1.06-.47-1.73-.47h-2.83v3.69Z"/></g><g class="cls-1"><path class="cls-2" d="M50.58,6.45l-4.16,11.32c-.5,1.36-1.35,2.05-2.55,2.05-.37,0-.68-.07-.93-.22v-1.45c.38,.16,.71,.23,.99,.23,.36,0,.66-.25,.91-.74,.04-.06,.24-.6,.61-1.62l-3.09-9.58h1.6l2.39,7.12,2.62-7.12h1.61Z"/><path class="cls-2" d="M43.86,20.04c-.41,0-.76-.08-1.04-.25l-.11-.06v-1.9l.3,.12c.35,.14,.66,.22,.9,.22,.27,0,.51-.2,.72-.62,.03-.05,.13-.31,.57-1.52l-3.16-9.79h2.06l2.24,6.68,2.45-6.68h2.07l-4.27,11.62c-.54,1.45-1.46,2.19-2.75,2.19Zm-.71-.57c.2,.09,.44,.13,.71,.13,1.1,0,1.87-.62,2.34-1.9l4.05-11.03h-1.14l-2.78,7.56-2.54-7.56h-1.14l3.02,9.36-.03,.07c-.56,1.55-.6,1.62-.63,1.66-.28,.56-.66,.84-1.1,.84-.23,0-.48-.05-.77-.14v1Z"/></g><g class="cls-1"><path class="cls-2" d="M60.16,11.77c.01-.14,.02-.33,.02-.56-.01-1.71-.43-3-1.26-3.88-.73-.77-1.71-1.15-2.94-1.15s-2.28,.47-3.09,1.4-1.2,2.13-1.2,3.59c0,3.4,1.47,5.1,4.4,5.1,2.09,0,3.39-1.09,3.89-3.27h-1.54c-.44,1.32-1.28,1.97-2.52,1.97-.72,0-1.33-.29-1.85-.86s-.78-1.24-.78-1.99c0-.16,0-.27,.02-.36h6.85Zm-4.12-4.36c1.5,0,2.35,1.01,2.54,3.03h-5.22c.23-2.02,1.12-3.03,2.68-3.03Z"/><path class="cls-2" d="M56.08,16.49c-3.06,0-4.62-1.79-4.62-5.32,0-1.51,.42-2.76,1.26-3.73,.84-.98,1.94-1.48,3.25-1.48s2.33,.41,3.1,1.22c.86,.91,1.3,2.27,1.32,4.03,0,.23,0,.42-.02,.58l-.02,.2h-6.85s0,.09,0,.14c0,.7,.24,1.31,.72,1.84,.48,.53,1.03,.79,1.69,.79,1.15,0,1.9-.6,2.31-1.82l.05-.15h1.97l-.06,.27c-.53,2.28-1.91,3.44-4.11,3.44Zm-.11-10.08c-1.2,0-2.15,.43-2.92,1.32-.76,.89-1.15,2.05-1.15,3.45,0,3.28,1.37,4.88,4.18,4.88,1.91,0,3.09-.93,3.61-2.83h-1.1c-.49,1.31-1.39,1.97-2.68,1.97-.78,0-1.46-.31-2.02-.93-.55-.61-.83-1.33-.83-2.14,0-.17,0-.3,.02-.39l.03-.19h6.84c0-.1,0-.21,0-.34-.01-1.64-.41-2.9-1.2-3.72-.68-.72-1.62-1.08-2.78-1.08Zm2.84,4.25h-5.71l.03-.24c.24-2.14,1.22-3.23,2.9-3.23s2.55,1.09,2.76,3.23l.02,.24Zm-5.21-.44h4.73c-.22-1.74-.97-2.59-2.29-2.59s-2.18,.85-2.43,2.59Z"/></g><g class="cls-1"><path class="cls-2" d="M72.66,4.68c-1.16-1.39-2.75-2.08-4.77-2.08s-3.55,.67-4.7,2.01c-1.05,1.26-1.58,2.86-1.58,4.83s.58,3.68,1.73,4.94c1.15,1.26,2.66,1.89,4.53,1.89s3.45-.62,4.62-1.86,1.75-2.86,1.75-4.87-.53-3.59-1.58-4.86Zm-1.24,8.47c-.83,1.09-1.99,1.63-3.5,1.63-1.4,0-2.52-.49-3.36-1.46-.84-.97-1.26-2.27-1.26-3.88s.38-2.81,1.15-3.77c.84-1.04,2.01-1.56,3.52-1.56,1.39,0,2.49,.5,3.32,1.49,.83,.99,1.24,2.25,1.24,3.79s-.37,2.79-1.11,3.77Z"/><path class="cls-2" d="M67.87,16.49c-1.92,0-3.5-.66-4.69-1.96-1.19-1.3-1.79-3.01-1.79-5.09s.55-3.68,1.63-4.97c1.19-1.39,2.83-2.09,4.87-2.09s3.74,.73,4.94,2.16h0c1.08,1.3,1.63,2.99,1.63,5s-.61,3.75-1.81,5.02c-1.2,1.28-2.81,1.93-4.78,1.93Zm.02-13.67c-1.91,0-3.43,.65-4.53,1.93-1.01,1.21-1.53,2.78-1.53,4.68s.56,3.58,1.67,4.79c1.11,1.21,2.57,1.82,4.37,1.82s3.34-.6,4.46-1.79c1.12-1.19,1.69-2.78,1.69-4.72s-.51-3.5-1.53-4.72c-1.11-1.33-2.66-2-4.6-2Zm.04,12.18c-1.46,0-2.64-.52-3.52-1.54-.87-1.01-1.31-2.37-1.31-4.03s.4-2.91,1.2-3.91c.88-1.09,2.12-1.64,3.69-1.64,1.45,0,2.62,.53,3.49,1.57,.86,1.03,1.29,2.35,1.29,3.93s-.39,2.88-1.16,3.9h0c-.87,1.14-2.1,1.72-3.67,1.72Zm.05-10.68c-1.45,0-2.55,.48-3.35,1.48-.73,.91-1.1,2.13-1.1,3.63s.4,2.81,1.2,3.74c.8,.93,1.84,1.39,3.19,1.39,1.45,0,2.54-.51,3.32-1.55,.71-.94,1.07-2.16,1.07-3.64s-.4-2.7-1.19-3.65c-.79-.95-1.82-1.41-3.15-1.41Z"/></g><g class="cls-1"><polygon class="cls-2" points="85.53 4.28 81.26 4.28 81.26 15.87 79.57 15.87 79.57 4.28 75.26 4.28 75.26 2.79 85.53 2.79 85.53 4.28"/><path class="cls-2" d="M81.48,16.09h-2.13V4.5h-4.31v-1.93h10.7v1.93h-4.27v11.59Zm-1.69-.44h1.25V4.06h4.27v-1.05h-9.82v1.05h4.31V15.65Z"/></g><g class="cls-1"><path class="cls-2" d="M21.3-.39c-1.94,.07-3.54,1.62-3.67,3.55-.03,.4,0,.79,.1,1.16,.32,1.32,.01,2.71-.78,3.81l-2.9,4.03c-.14,.2-.37,.32-.62,.31h-.17c-.15,0-.28-.08-.35-.21l-1.17-2.22c-.2-.38-.18-.84,.07-1.19,.37-.53,.58-1.19,.54-1.9-.09-1.5-1.31-2.72-2.8-2.81-1.74-.11-3.19,1.27-3.19,3,0,.27,.04,.54,.1,.79,.19,.7,.05,1.45-.41,2.01l-1.94,2.33c-.44,.52-1.09,.82-1.77,.79-.12,0-.23,0-.35,.01C.92,13.18,.09,14.03,0,15.08c-.13,1.4,1.04,2.57,2.45,2.44,1.02-.09,1.87-.9,2.01-1.92,.02-.18,.03-.35,.01-.51-.05-.56,.15-1.11,.5-1.54l2.21-2.65c.46-.55,1.15-.86,1.86-.79,.1,0,.2,.02,.3,.02h0c.45,0,.86,.25,1.07,.64l1.17,2.21c.07,.13,.05,.28-.03,.4-.24,.35-.37,.78-.36,1.24,.04,1.06,.9,1.93,1.96,1.98,1.18,.06,2.16-.89,2.16-2.06,0-.24-.04-.47-.12-.69-.11-.31-.05-.65,.14-.91l2.69-3.74c.84-1.17,2.18-1.88,3.62-1.96,.02,0,.03,0,.05,0,1.94-.13,3.49-1.74,3.55-3.68,.07-2.21-1.74-4.02-3.95-3.94Zm.25,5.42c-.92,0-1.67-.75-1.67-1.67s.75-1.67,1.67-1.67,1.67,.75,1.67,1.67-.75,1.67-1.67,1.67Z"/></g></svg>